<svg width="193" height="185" viewBox="0 0 193 185" fill="none" xmlns="http://www.w3.org/2000/svg">
<rect width="100%" height="100%" fill="white" />
<path d="M0.1 25.9H16.48C16.76 26.74 17.58 27.46 18.94 28.06C20.3 28.62 22.12 29.06 24.4 29.38C26.72 29.66 29.4 29.8 32.44 29.8C35.44 29.8 37.8 29.72 39.52 29.56C41.28 29.36 42.52 29.04 43.24 28.6C43.96 28.12 44.32 27.48 44.32 26.68C44.32 25.92 43.74 25.34 42.58 24.94C41.42 24.5 39.36 24.2 36.4 24.04C33.44 23.88 29.28 23.8 23.92 23.8C19.92 23.8 16.46 23.62 13.54 23.26C10.66 22.86 8.28 22.26 6.4 21.46C4.56 20.62 3.2 19.58 2.32 18.34C1.44 17.06 1 15.54 1 13.78C1 10.74 2.02 8.24 4.06 6.28C6.14 4.28 9.26 2.8 13.42 1.84C17.62 0.839999 22.86 0.339999 29.14 0.339999C38.34 0.339999 45.36 1.68 50.2 4.36C55.08 7 57.52 10.82 57.52 15.82H41.98C41.78 14.5 40.54 13.5 38.26 12.82C35.98 12.1 32.74 11.74 28.54 11.74C24.38 11.74 21.28 11.98 19.24 12.46C17.24 12.94 16.24 13.76 16.24 14.92C16.24 15.52 16.52 16 17.08 16.36C17.64 16.72 18.6 17.02 19.96 17.26C21.36 17.46 23.32 17.6 25.84 17.68C28.36 17.76 31.56 17.8 35.44 17.8C39.72 17.8 43.36 18.02 46.36 18.46C49.36 18.86 51.78 19.48 53.62 20.32C55.5 21.16 56.86 22.24 57.7 23.56C58.54 24.84 58.96 26.36 58.96 28.12C58.96 31.16 58 33.64 56.08 35.56C54.16 37.48 51.12 38.9 46.96 39.82C42.8 40.74 37.36 41.2 30.64 41.2C26.84 41.2 23.34 40.98 20.14 40.54C16.98 40.1 14.16 39.46 11.68 38.62C9.2 37.74 7.1 36.68 5.38 35.44C3.66 34.16 2.34 32.74 1.42 31.18C0.54 29.58 0.1 27.82 0.1 25.9ZM61.6398 10.6H76.9398L94.4598 38.8L82.0398 40L61.6398 10.6ZM116.84 10.6L87.6198 52H72.9198L85.4598 35.02L101.54 10.6H116.84ZM119.821 10.6H134.221V40H119.821V10.6ZM155.821 9.7C158.181 9.7 160.461 9.96 162.661 10.48C164.861 10.96 166.821 11.8 168.541 13C170.301 14.2 171.701 15.84 172.741 17.92C173.781 20 174.301 22.62 174.301 25.78V40H159.901V27.58C159.901 24.58 159.121 22.46 157.561 21.22C156.001 19.94 153.181 19.3 149.101 19.3C146.941 19.3 144.841 19.54 142.801 20.02C140.801 20.5 139.001 21.08 137.401 21.76C135.801 22.4 134.541 23.04 133.621 23.68L133.501 21.4C133.661 20.68 134.201 19.68 135.121 18.4C136.081 17.08 137.461 15.76 139.261 14.44C141.061 13.12 143.321 12 146.041 11.08C148.801 10.16 152.061 9.7 155.821 9.7ZM24.94 107.86C19.26 107.86 14.58 107.4 10.9 106.48C7.22 105.52 4.5 104.1 2.74 102.22C0.98 100.3 0.1 97.9 0.1 95.02C0.1 92.34 0.96 90.02 2.68 88.06C4.4 86.06 7.08 84.5 10.72 83.38C14.4 82.26 19.14 81.7 24.94 81.7C26.1 81.7 27.28 81.7 28.48 81.7C29.68 81.7 30.86 81.7 32.02 81.7H54.94V89.26C52.34 89.38 49.7 89.26 47.02 88.9C44.38 88.5 41.94 87.98 39.7 87.34L39.04 86.44C40.84 87 42.54 87.72 44.14 88.6C45.78 89.48 47.1 90.54 48.1 91.78C49.1 93.02 49.6 94.5 49.6 96.22C49.6 98.7 48.74 100.82 47.02 102.58C45.34 104.3 42.68 105.62 39.04 106.54C35.44 107.42 30.74 107.86 24.94 107.86ZM37.72 124.9V123.28C37.72 122.08 37.18 121.36 36.1 121.12C35.06 120.92 33.4 120.82 31.12 120.82H14.38C11.54 120.82 9.24 120.62 7.48 120.22C5.76 119.82 4.44 119.28 3.52 118.6C2.64 117.92 2.04 117.16 1.72 116.32C1.44 115.52 1.3 114.72 1.3 113.92C1.3 112.2 1.94 110.86 3.22 109.9C4.5 108.9 6.46 108.2 9.1 107.8C11.74 107.4 15.1 107.2 19.18 107.2L24.94 107.86C21.58 107.86 19.24 108.04 17.92 108.4C16.6 108.72 15.94 109.38 15.94 110.38C15.94 110.94 16.2 111.36 16.72 111.64C17.24 111.88 17.94 112 18.82 112H36.52C40.48 112 43.6 112.28 45.88 112.84C48.16 113.44 49.76 114.42 50.68 115.78C51.64 117.18 52.12 119.08 52.12 121.48V124.9H37.72ZM24.94 100C27.58 100 29.7 99.8 31.3 99.4C32.94 98.96 34.12 98.38 34.84 97.66C35.56 96.94 35.92 96.14 35.92 95.26C35.92 94.26 35.56 93.4 34.84 92.68C34.12 91.96 32.96 91.4 31.36 91C29.76 90.6 27.62 90.4 24.94 90.4C22.3 90.4 20.16 90.6 18.52 91C16.88 91.4 15.68 91.96 14.92 92.68C14.16 93.4 13.78 94.26 13.78 95.26C13.78 96.14 14.14 96.94 14.86 97.66C15.62 98.38 16.82 98.96 18.46 99.4C20.1 99.8 22.26 100 24.94 100ZM97.5686 101.44H111.729C111.369 103.76 110.209 105.78 108.249 107.5C106.329 109.22 103.509 110.56 99.7886 111.52C96.1086 112.44 91.4086 112.9 85.6886 112.9C79.6486 112.9 74.4286 112.42 70.0286 111.46C65.6686 110.5 62.3086 108.88 59.9486 106.6C57.5886 104.32 56.4086 101.24 56.4086 97.36C56.4086 93.52 57.5486 90.46 59.8286 88.18C62.1486 85.86 65.4886 84.2 69.8486 83.2C74.2086 82.2 79.4886 81.7 85.6886 81.7C91.7686 81.7 96.7486 82.24 100.629 83.32C104.509 84.4 107.369 86.16 109.209 88.6C111.049 91 111.929 94.26 111.849 98.38H71.0486C71.2486 99.42 71.8086 100.38 72.7286 101.26C73.6886 102.14 75.1486 102.86 77.1086 103.42C79.1086 103.94 81.7686 104.2 85.0886 104.2C88.5286 104.2 91.3486 103.96 93.5486 103.48C95.7886 103 97.1286 102.32 97.5686 101.44ZM85.0886 90.4C80.8486 90.4 77.6086 90.86 75.3686 91.78C73.1686 92.7 71.8686 93.62 71.4686 94.54H97.8686C97.5886 93.5 96.4686 92.56 94.5086 91.72C92.5486 90.84 89.4086 90.4 85.0886 90.4ZM116.657 82.6H131.057V112H116.657V82.6ZM152.657 81.7C155.017 81.7 157.297 81.96 159.497 82.48C161.697 82.96 163.657 83.8 165.377 85C167.137 86.2 168.537 87.84 169.577 89.92C170.617 92 171.137 94.62 171.137 97.78V112H156.737V99.58C156.737 96.58 155.957 94.46 154.397 93.22C152.837 91.94 150.017 91.3 145.937 91.3C143.777 91.3 141.677 91.54 139.637 92.02C137.637 92.5 135.837 93.08 134.237 93.76C132.637 94.4 131.377 95.04 130.457 95.68L130.337 93.4C130.497 92.68 131.037 91.68 131.957 90.4C132.917 89.08 134.297 87.76 136.097 86.44C137.897 85.12 140.157 84 142.877 83.08C145.637 82.16 148.897 81.7 152.657 81.7ZM192.38 67.18V76.18H177.14V67.18H192.38ZM177.56 82.6H191.96V112H177.56V82.6ZM28.6 184.9C22.24 184.9 16.94 184.38 12.7 183.34C8.5 182.3 5.34 180.64 3.22 178.36C1.14 176.08 0.1 173.08 0.1 169.36C0.1 165.64 1.14 162.64 3.22 160.36C5.34 158.04 8.5 156.36 12.7 155.32C16.94 154.24 22.24 153.7 28.6 153.7C34.92 153.7 40.16 154.24 44.32 155.32C48.52 156.36 51.66 158.04 53.74 160.36C55.82 162.64 56.86 165.64 56.86 169.36C56.86 173.08 55.82 176.08 53.74 178.36C51.66 180.64 48.52 182.3 44.32 183.34C40.16 184.38 34.92 184.9 28.6 184.9ZM28.6 176.2C31.56 176.2 34.04 175.96 36.04 175.48C38.04 174.96 39.56 174.2 40.6 173.2C41.64 172.16 42.16 170.88 42.16 169.36C42.16 167.84 41.64 166.56 40.6 165.52C39.6 164.48 38.1 163.7 36.1 163.18C34.1 162.66 31.6 162.4 28.6 162.4C25.64 162.4 23.12 162.66 21.04 163.18C19 163.7 17.44 164.48 16.36 165.52C15.32 166.52 14.8 167.8 14.8 169.36C14.8 170.88 15.32 172.16 16.36 173.2C17.4 174.2 18.94 174.96 20.98 175.48C23.06 175.96 25.6 176.2 28.6 176.2ZM116.118 184H101.718V154.6H116.118V184ZM102.318 168.82L102.438 171.7C102.318 172.54 101.918 173.52 101.238 174.64C100.598 175.76 99.6975 176.92 98.5375 178.12C97.3775 179.32 95.9575 180.44 94.2775 181.48C92.5975 182.48 90.6775 183.3 88.5175 183.94C86.3575 184.58 83.9575 184.9 81.3175 184.9C78.6775 184.9 76.1775 184.62 73.8175 184.06C71.4575 183.54 69.3575 182.66 67.5175 181.42C65.6775 180.18 64.2375 178.52 63.1975 176.44C62.1575 174.32 61.6375 171.68 61.6375 168.52V154.6H76.0375V167.02C76.0375 169.22 76.3975 170.92 77.1175 172.12C77.8775 173.32 79.0575 174.16 80.6575 174.64C82.2575 175.08 84.3175 175.3 86.8375 175.3C89.1975 175.3 91.3775 174.96 93.3775 174.28C95.4175 173.56 97.1975 172.7 98.7175 171.7C100.278 170.7 101.478 169.74 102.318 168.82ZM121.22 173.44H134.48C135.04 174.48 136.1 175.2 137.66 175.6C139.26 176 141.54 176.2 144.5 176.2C146.78 176.2 148.46 176.08 149.54 175.84C150.66 175.6 151.38 175.28 151.7 174.88C152.06 174.48 152.24 174.06 152.24 173.62C152.24 172.94 151.86 172.48 151.1 172.24C150.38 171.96 149.14 171.8 147.38 171.76C145.62 171.68 143.2 171.64 140.12 171.64C137.2 171.64 134.58 171.52 132.26 171.28C129.98 171 128.04 170.58 126.44 170.02C124.84 169.42 123.62 168.6 122.78 167.56C121.94 166.52 121.52 165.22 121.52 163.66C121.52 161.74 122.14 160.14 123.38 158.86C124.62 157.54 126.3 156.52 128.42 155.8C130.54 155.04 132.98 154.5 135.74 154.18C138.54 153.86 141.46 153.7 144.5 153.7C149.54 153.7 153.66 154.22 156.86 155.26C160.06 156.26 162.42 157.62 163.94 159.34C165.46 161.06 166.2 163 166.16 165.16H153.26C152.82 164.12 151.98 163.4 150.74 163C149.54 162.6 147.46 162.4 144.5 162.4C141.7 162.4 139.66 162.62 138.38 163.06C137.14 163.46 136.52 164.12 136.52 165.04C136.52 165.64 136.82 166.1 137.42 166.42C138.06 166.7 139.24 166.9 140.96 167.02C142.72 167.14 145.28 167.2 148.64 167.2C150.96 167.2 153.22 167.28 155.42 167.44C157.66 167.6 159.66 167.94 161.42 168.46C163.22 168.98 164.64 169.78 165.68 170.86C166.72 171.94 167.24 173.42 167.24 175.3C167.24 177.58 166.3 179.44 164.42 180.88C162.58 182.28 159.96 183.3 156.56 183.94C153.16 184.58 149.14 184.9 144.5 184.9C140.46 184.9 137.04 184.64 134.24 184.12C131.48 183.6 129.22 182.92 127.46 182.08C125.7 181.2 124.34 180.26 123.38 179.26C122.46 178.22 121.84 177.2 121.52 176.2C121.24 175.16 121.14 174.24 121.22 173.44Z" fill="#1607C2"/>
</svg>
